<mxfile host="Electron" agent="Mozilla/5.0 (X11; Linux x86_64) AppleWebKit/537.36 (KHTML, like Gecko) draw.io/24.7.17 Chrome/128.0.6613.36 Electron/32.0.1 Safari/537.36" version="24.7.17">
  <diagram name="Page-1" id="yLHGNl1vDqZS-n5wsi_u">
    <mxGraphModel dx="761" dy="838" grid="1" gridSize="10" guides="1" tooltips="1" connect="1" arrows="1" fold="1" page="1" pageScale="1" pageWidth="850" pageHeight="1100" math="0" shadow="0">
      <root>
        <mxCell id="0" />
        <mxCell id="1" parent="0" />
        <mxCell id="vnuSnwDbRGWaWowxYby5-1" value="Cliente" style="rounded=0;whiteSpace=wrap;html=1;" vertex="1" parent="1">
          <mxGeometry x="365" y="280" width="120" height="60" as="geometry" />
        </mxCell>
        <mxCell id="vnuSnwDbRGWaWowxYby5-4" value="nombre" style="ellipse;whiteSpace=wrap;html=1;" vertex="1" parent="1">
          <mxGeometry x="280" y="390" width="85" height="40" as="geometry" />
        </mxCell>
        <mxCell id="vnuSnwDbRGWaWowxYby5-6" value="dirección" style="ellipse;whiteSpace=wrap;html=1;" vertex="1" parent="1">
          <mxGeometry x="520" y="290" width="85" height="40" as="geometry" />
        </mxCell>
        <mxCell id="vnuSnwDbRGWaWowxYby5-7" value="&lt;u&gt;id_cliente&lt;/u&gt;" style="ellipse;whiteSpace=wrap;html=1;" vertex="1" parent="1">
          <mxGeometry x="250" y="290" width="85" height="40" as="geometry" />
        </mxCell>
        <mxCell id="vnuSnwDbRGWaWowxYby5-8" value="nombre_pila" style="ellipse;whiteSpace=wrap;html=1;" vertex="1" parent="1">
          <mxGeometry x="230" y="450" width="85" height="40" as="geometry" />
        </mxCell>
        <mxCell id="vnuSnwDbRGWaWowxYby5-9" value="apellido_paterno" style="ellipse;whiteSpace=wrap;html=1;" vertex="1" parent="1">
          <mxGeometry x="325" y="450" width="115" height="40" as="geometry" />
        </mxCell>
        <mxCell id="vnuSnwDbRGWaWowxYby5-10" value="apellido_materno" style="ellipse;whiteSpace=wrap;html=1;" vertex="1" parent="1">
          <mxGeometry x="260" y="510" width="115" height="40" as="geometry" />
        </mxCell>
        <mxCell id="vnuSnwDbRGWaWowxYby5-13" value="" style="endArrow=none;html=1;rounded=0;exitX=1;exitY=0.5;exitDx=0;exitDy=0;" edge="1" parent="1" source="vnuSnwDbRGWaWowxYby5-7">
          <mxGeometry width="50" height="50" relative="1" as="geometry">
            <mxPoint x="315" y="360" as="sourcePoint" />
            <mxPoint x="365" y="310" as="targetPoint" />
          </mxGeometry>
        </mxCell>
        <mxCell id="vnuSnwDbRGWaWowxYby5-14" value="" style="endArrow=none;html=1;rounded=0;exitX=1;exitY=0.5;exitDx=0;exitDy=0;entryX=0;entryY=0.5;entryDx=0;entryDy=0;" edge="1" parent="1" source="vnuSnwDbRGWaWowxYby5-1" target="vnuSnwDbRGWaWowxYby5-6">
          <mxGeometry width="50" height="50" relative="1" as="geometry">
            <mxPoint x="470" y="350" as="sourcePoint" />
            <mxPoint x="520" y="300" as="targetPoint" />
          </mxGeometry>
        </mxCell>
        <mxCell id="vnuSnwDbRGWaWowxYby5-15" value="" style="endArrow=none;html=1;rounded=0;exitX=0.5;exitY=0;exitDx=0;exitDy=0;" edge="1" parent="1" source="vnuSnwDbRGWaWowxYby5-4">
          <mxGeometry width="50" height="50" relative="1" as="geometry">
            <mxPoint x="375" y="390" as="sourcePoint" />
            <mxPoint x="425" y="340" as="targetPoint" />
          </mxGeometry>
        </mxCell>
        <mxCell id="vnuSnwDbRGWaWowxYby5-17" value="" style="endArrow=none;html=1;rounded=0;exitX=0.5;exitY=0;exitDx=0;exitDy=0;entryX=0.5;entryY=1;entryDx=0;entryDy=0;" edge="1" parent="1" source="vnuSnwDbRGWaWowxYby5-8" target="vnuSnwDbRGWaWowxYby5-4">
          <mxGeometry width="50" height="50" relative="1" as="geometry">
            <mxPoint x="275" y="480" as="sourcePoint" />
            <mxPoint x="320" y="450" as="targetPoint" />
          </mxGeometry>
        </mxCell>
        <mxCell id="vnuSnwDbRGWaWowxYby5-18" value="" style="endArrow=none;html=1;rounded=0;exitX=0.5;exitY=1;exitDx=0;exitDy=0;entryX=0.5;entryY=0;entryDx=0;entryDy=0;" edge="1" parent="1" source="vnuSnwDbRGWaWowxYby5-1" target="vnuSnwDbRGWaWowxYby5-19">
          <mxGeometry width="50" height="50" relative="1" as="geometry">
            <mxPoint x="400" y="420" as="sourcePoint" />
            <mxPoint x="440" y="390" as="targetPoint" />
          </mxGeometry>
        </mxCell>
        <mxCell id="vnuSnwDbRGWaWowxYby5-19" value="Edad" style="ellipse;whiteSpace=wrap;html=1;align=center;dashed=1;" vertex="1" parent="1">
          <mxGeometry x="485" y="390" width="100" height="40" as="geometry" />
        </mxCell>
        <mxCell id="vnuSnwDbRGWaWowxYby5-20" value="" style="endArrow=none;html=1;rounded=0;exitX=0.5;exitY=1;exitDx=0;exitDy=0;entryX=0.5;entryY=0;entryDx=0;entryDy=0;" edge="1" parent="1" source="vnuSnwDbRGWaWowxYby5-4" target="vnuSnwDbRGWaWowxYby5-9">
          <mxGeometry width="50" height="50" relative="1" as="geometry">
            <mxPoint x="380" y="370" as="sourcePoint" />
            <mxPoint x="430" y="320" as="targetPoint" />
          </mxGeometry>
        </mxCell>
        <mxCell id="vnuSnwDbRGWaWowxYby5-21" value="" style="endArrow=none;html=1;rounded=0;exitX=0.5;exitY=1;exitDx=0;exitDy=0;entryX=0.5;entryY=0;entryDx=0;entryDy=0;" edge="1" parent="1" source="vnuSnwDbRGWaWowxYby5-4" target="vnuSnwDbRGWaWowxYby5-10">
          <mxGeometry width="50" height="50" relative="1" as="geometry">
            <mxPoint x="333" y="400" as="sourcePoint" />
            <mxPoint x="435" y="350" as="targetPoint" />
          </mxGeometry>
        </mxCell>
        <mxCell id="vnuSnwDbRGWaWowxYby5-22" value="número_teléfono" style="ellipse;shape=doubleEllipse;margin=3;whiteSpace=wrap;html=1;align=center;" vertex="1" parent="1">
          <mxGeometry x="290" y="200" width="115" height="40" as="geometry" />
        </mxCell>
        <mxCell id="vnuSnwDbRGWaWowxYby5-23" value="" style="endArrow=none;html=1;rounded=0;entryX=0.5;entryY=1;entryDx=0;entryDy=0;exitX=0.5;exitY=0;exitDx=0;exitDy=0;" edge="1" parent="1" source="vnuSnwDbRGWaWowxYby5-1" target="vnuSnwDbRGWaWowxYby5-22">
          <mxGeometry width="50" height="50" relative="1" as="geometry">
            <mxPoint x="380" y="370" as="sourcePoint" />
            <mxPoint x="430" y="320" as="targetPoint" />
          </mxGeometry>
        </mxCell>
        <mxCell id="vnuSnwDbRGWaWowxYby5-24" value="fecha_nacimiento" style="ellipse;whiteSpace=wrap;html=1;" vertex="1" parent="1">
          <mxGeometry x="440" y="200" width="120" height="40" as="geometry" />
        </mxCell>
        <mxCell id="vnuSnwDbRGWaWowxYby5-25" value="" style="endArrow=none;html=1;rounded=0;exitX=0.5;exitY=1;exitDx=0;exitDy=0;entryX=0.5;entryY=0;entryDx=0;entryDy=0;" edge="1" parent="1" source="vnuSnwDbRGWaWowxYby5-24" target="vnuSnwDbRGWaWowxYby5-1">
          <mxGeometry width="50" height="50" relative="1" as="geometry">
            <mxPoint x="580" y="260" as="sourcePoint" />
            <mxPoint x="630" y="210" as="targetPoint" />
          </mxGeometry>
        </mxCell>
        <mxCell id="vnuSnwDbRGWaWowxYby5-26" value="calle" style="ellipse;whiteSpace=wrap;html=1;" vertex="1" parent="1">
          <mxGeometry x="600" y="190" width="85" height="40" as="geometry" />
        </mxCell>
        <mxCell id="vnuSnwDbRGWaWowxYby5-27" value="nombre_calle" style="ellipse;whiteSpace=wrap;html=1;" vertex="1" parent="1">
          <mxGeometry x="550" y="120" width="85" height="40" as="geometry" />
        </mxCell>
        <mxCell id="vnuSnwDbRGWaWowxYby5-28" value="número" style="ellipse;whiteSpace=wrap;html=1;" vertex="1" parent="1">
          <mxGeometry x="650" y="120" width="85" height="40" as="geometry" />
        </mxCell>
        <mxCell id="vnuSnwDbRGWaWowxYby5-29" value="" style="endArrow=none;html=1;rounded=0;entryX=0.5;entryY=1;entryDx=0;entryDy=0;exitX=0.5;exitY=0;exitDx=0;exitDy=0;" edge="1" parent="1" source="vnuSnwDbRGWaWowxYby5-6" target="vnuSnwDbRGWaWowxYby5-26">
          <mxGeometry width="50" height="50" relative="1" as="geometry">
            <mxPoint x="470" y="380" as="sourcePoint" />
            <mxPoint x="520" y="330" as="targetPoint" />
          </mxGeometry>
        </mxCell>
        <mxCell id="vnuSnwDbRGWaWowxYby5-30" value="" style="endArrow=none;html=1;rounded=0;entryX=0.5;entryY=1;entryDx=0;entryDy=0;exitX=0.5;exitY=0;exitDx=0;exitDy=0;" edge="1" parent="1" source="vnuSnwDbRGWaWowxYby5-26" target="vnuSnwDbRGWaWowxYby5-27">
          <mxGeometry width="50" height="50" relative="1" as="geometry">
            <mxPoint x="573" y="300" as="sourcePoint" />
            <mxPoint x="658" y="200" as="targetPoint" />
          </mxGeometry>
        </mxCell>
        <mxCell id="vnuSnwDbRGWaWowxYby5-31" value="" style="endArrow=none;html=1;rounded=0;entryX=0.5;entryY=1;entryDx=0;entryDy=0;exitX=0.5;exitY=0;exitDx=0;exitDy=0;" edge="1" parent="1" source="vnuSnwDbRGWaWowxYby5-26" target="vnuSnwDbRGWaWowxYby5-28">
          <mxGeometry width="50" height="50" relative="1" as="geometry">
            <mxPoint x="658" y="160" as="sourcePoint" />
            <mxPoint x="638" y="130" as="targetPoint" />
          </mxGeometry>
        </mxCell>
        <mxCell id="vnuSnwDbRGWaWowxYby5-33" value="estado" style="ellipse;whiteSpace=wrap;html=1;" vertex="1" parent="1">
          <mxGeometry x="670" y="250" width="85" height="40" as="geometry" />
        </mxCell>
        <mxCell id="vnuSnwDbRGWaWowxYby5-34" value="código_postal" style="ellipse;whiteSpace=wrap;html=1;" vertex="1" parent="1">
          <mxGeometry x="670" y="300" width="85" height="40" as="geometry" />
        </mxCell>
        <mxCell id="vnuSnwDbRGWaWowxYby5-35" value="municipio" style="ellipse;whiteSpace=wrap;html=1;" vertex="1" parent="1">
          <mxGeometry x="670" y="350" width="85" height="40" as="geometry" />
        </mxCell>
        <mxCell id="vnuSnwDbRGWaWowxYby5-36" value="" style="endArrow=none;html=1;rounded=0;entryX=0;entryY=0.5;entryDx=0;entryDy=0;exitX=1;exitY=0.5;exitDx=0;exitDy=0;" edge="1" parent="1" source="vnuSnwDbRGWaWowxYby5-6" target="vnuSnwDbRGWaWowxYby5-35">
          <mxGeometry width="50" height="50" relative="1" as="geometry">
            <mxPoint x="653" y="200" as="sourcePoint" />
            <mxPoint x="703" y="170" as="targetPoint" />
          </mxGeometry>
        </mxCell>
        <mxCell id="vnuSnwDbRGWaWowxYby5-37" value="" style="endArrow=none;html=1;rounded=0;entryX=0;entryY=0.5;entryDx=0;entryDy=0;exitX=1;exitY=0.5;exitDx=0;exitDy=0;" edge="1" parent="1" source="vnuSnwDbRGWaWowxYby5-6" target="vnuSnwDbRGWaWowxYby5-34">
          <mxGeometry width="50" height="50" relative="1" as="geometry">
            <mxPoint x="663" y="210" as="sourcePoint" />
            <mxPoint x="713" y="180" as="targetPoint" />
          </mxGeometry>
        </mxCell>
        <mxCell id="vnuSnwDbRGWaWowxYby5-38" value="" style="endArrow=none;html=1;rounded=0;entryX=0;entryY=0.5;entryDx=0;entryDy=0;exitX=1;exitY=0.5;exitDx=0;exitDy=0;" edge="1" parent="1" source="vnuSnwDbRGWaWowxYby5-6" target="vnuSnwDbRGWaWowxYby5-33">
          <mxGeometry width="50" height="50" relative="1" as="geometry">
            <mxPoint x="673" y="220" as="sourcePoint" />
            <mxPoint x="723" y="190" as="targetPoint" />
          </mxGeometry>
        </mxCell>
      </root>
    </mxGraphModel>
  </diagram>
</mxfile>
